<svg width="115" height="116" viewBox="0 0 115 116" fill="none" xmlns="http://www.w3.org/2000/svg">
<rect x="0.240234" width="114.568" height="115.67" rx="57.2842" fill="#6539C3"/>
<path d="M66.1889 69.8601H49.5989V66.0801L57.4039 59.1151C58.6406 57.9951 59.5856 56.9334 60.2389 55.9301C60.9156 54.9034 61.2539 53.8301 61.2539 52.7101V52.2551C61.2539 51.0651 60.8922 50.1318 60.1689 49.4551C59.4689 48.7784 58.5122 48.4401 57.2989 48.4401C56.6222 48.4401 56.0272 48.5451 55.5139 48.7551C55.0239 48.9418 54.5922 49.2101 54.2189 49.5601C53.8456 49.9101 53.5306 50.3184 53.2739 50.7851C53.0406 51.2518 52.8539 51.7534 52.7139 52.2901L49.2489 50.9601C49.5056 50.1901 49.8556 49.4551 50.2989 48.7551C50.7422 48.0318 51.3022 47.3901 51.9789 46.8301C52.6556 46.2701 53.4489 45.8268 54.3589 45.5001C55.2922 45.1734 56.3772 45.0101 57.6139 45.0101C58.8506 45.0101 59.9589 45.1968 60.9389 45.5701C61.9189 45.9201 62.7356 46.4218 63.3889 47.0751C64.0656 47.7051 64.5789 48.4634 64.9289 49.3501C65.2789 50.2368 65.4539 51.2051 65.4539 52.2551C65.4539 53.2351 65.3022 54.1451 64.9989 54.9851C64.6956 55.8251 64.2756 56.6184 63.7389 57.3651C63.2022 58.1118 62.5722 58.8234 61.8489 59.5001C61.1489 60.1768 60.4022 60.8651 59.6089 61.5651L53.8689 66.5001H66.1889V69.8601Z" fill="white"/>
</svg>
