<svg width="115" height="116" viewBox="0 0 115 116" fill="none" xmlns="http://www.w3.org/2000/svg">
<rect x="0.240234" width="114.568" height="115.67" rx="57.2842" fill="#6539C3" fill-opacity="0.1"/>
<path d="M56.4239 55.4751C57.9406 55.4751 59.0606 55.1601 59.7839 54.5301C60.5072 53.8768 60.8689 53.0484 60.8689 52.0451V51.8001C60.8689 50.6801 60.5189 49.8284 59.8189 49.2451C59.1189 48.6384 58.1739 48.3351 56.9839 48.3351C55.8172 48.3351 54.8256 48.6034 54.0089 49.1401C53.1922 49.6534 52.5039 50.3768 51.9439 51.3101L49.3189 49.0351C49.6922 48.4984 50.1122 47.9851 50.5789 47.4951C51.0456 47.0051 51.5939 46.5851 52.2239 46.2351C52.8539 45.8618 53.5656 45.5701 54.3589 45.3601C55.1522 45.1268 56.0622 45.0101 57.0889 45.0101C58.2322 45.0101 59.2939 45.1501 60.2739 45.4301C61.2539 45.7101 62.0939 46.1301 62.7939 46.6901C63.4939 47.2268 64.0422 47.8918 64.4389 48.6851C64.8356 49.4551 65.0339 50.3301 65.0339 51.3101C65.0339 52.0801 64.9056 52.7801 64.6489 53.4101C64.4156 54.0401 64.0772 54.6001 63.6339 55.0901C63.2139 55.5568 62.7122 55.9418 62.1289 56.2451C61.5689 56.5484 60.9739 56.7701 60.3439 56.9101V57.0851C61.0439 57.2251 61.6972 57.4584 62.3039 57.7851C62.9339 58.0884 63.4822 58.4968 63.9489 59.0101C64.4156 59.5001 64.7772 60.0951 65.0339 60.7951C65.3139 61.4718 65.4539 62.2534 65.4539 63.1401C65.4539 64.2134 65.2439 65.1934 64.8239 66.0801C64.4039 66.9434 63.8089 67.6901 63.0389 68.3201C62.2922 68.9501 61.3822 69.4401 60.3089 69.7901C59.2356 70.1168 58.0456 70.2801 56.7389 70.2801C55.5956 70.2801 54.5922 70.1518 53.7289 69.8951C52.8656 69.6618 52.0956 69.3468 51.4189 68.9501C50.7656 68.5301 50.1822 68.0634 49.6689 67.5501C49.1789 67.0134 48.7472 66.4651 48.3739 65.9051L51.2789 63.6301C51.5822 64.1201 51.8972 64.5751 52.2239 64.9951C52.5739 65.3918 52.9589 65.7418 53.3789 66.0451C53.8222 66.3251 54.3122 66.5468 54.8489 66.7101C55.4089 66.8734 56.0389 66.9551 56.7389 66.9551C58.2322 66.9551 59.3756 66.6051 60.1689 65.9051C60.9622 65.1818 61.3589 64.1901 61.3589 62.9301V62.6851C61.3589 61.4251 60.9389 60.4684 60.0989 59.8151C59.2589 59.1618 58.0689 58.8351 56.5289 58.8351H53.9389V55.4751H56.4239Z" fill="#6539C3"/>
</svg>
