<svg width="105" height="106" viewBox="0 0 105 106" fill="none" xmlns="http://www.w3.org/2000/svg">
<rect width="105" height="106.01" rx="52.5" fill="#6539C3" fill-opacity="0.1"/>
<path d="M47.2554 42.0139C49.3665 38.2269 50.4221 36.3333 52.0002 36.3333C53.5783 36.3333 54.6338 38.2269 56.7449 42.0139L57.2911 42.9937C57.891 44.0699 58.1909 44.608 58.6586 44.963C59.1263 45.318 59.7087 45.4498 60.8737 45.7134L61.9343 45.9534C66.0337 46.8809 68.0835 47.3447 68.5711 48.9129C69.0588 50.4811 67.6614 52.1151 64.8667 55.3832L64.1436 56.2287C63.3495 57.1574 62.9524 57.6217 62.7737 58.1962C62.5951 58.7706 62.6551 59.3902 62.7752 60.6292L62.8845 61.7573C63.307 66.1176 63.5183 68.2978 62.2416 69.267C60.9649 70.2362 59.0457 69.3526 55.2074 67.5853L54.2144 67.128C53.1236 66.6258 52.5783 66.3747 52.0002 66.3747C51.4221 66.3747 50.8767 66.6258 49.786 67.128L48.793 67.5853C44.9546 69.3526 43.0355 70.2362 41.7587 69.267C40.482 68.2978 40.6933 66.1176 41.1158 61.7573L41.2251 60.6292C41.3452 59.3902 41.4052 58.7706 41.2266 58.1962C41.048 57.6217 40.6509 57.1574 39.8567 56.2287L39.1337 55.3832C36.3389 52.1151 34.9415 50.4811 35.4292 48.9129C35.9169 47.3447 37.9666 46.8809 42.0661 45.9534L43.1266 45.7134C44.2916 45.4498 44.8741 45.318 45.3417 44.963C45.8094 44.608 46.1094 44.0699 46.7093 42.9937L47.2554 42.0139Z" fill="#6539C3"/>
</svg>
