<svg width="105" height="106" viewBox="0 0 105 106" fill="none" xmlns="http://www.w3.org/2000/svg">
<rect width="105" height="106.01" rx="52.5" fill="#6539C3" fill-opacity="0.1"/>
<path d="M70.8827 45.3776C72.043 46.5241 72.5421 47.9677 72.7754 49.6822C73.0001 51.3336 73 53.4333 73 56.0382V56.2473C73 58.8522 73.0001 60.9519 72.7754 62.6033C72.5421 64.3178 72.043 65.7614 70.8827 66.9079C69.7224 68.0544 68.2615 68.5475 66.5264 68.778C64.8551 69.0001 62.7302 69 60.094 69H50.244C47.6077 69 45.4828 69.0001 43.8116 68.778C42.0765 68.5475 40.6155 68.0544 39.4552 66.9079C38.7513 66.2123 38.2907 65.4074 37.9852 64.499C39.7281 64.7148 41.8844 64.7146 44.3757 64.7145H54.3948C56.9581 64.7146 59.1667 64.7148 60.9353 64.4798C62.8307 64.228 64.6476 63.6602 66.1213 62.204C67.595 60.7478 68.1697 58.9525 68.4245 57.0796C68.6623 55.3319 68.6622 53.1496 68.662 50.6168V50.2406C68.6622 47.7782 68.6623 45.6471 68.4438 43.9247C69.3636 44.2266 70.1785 44.6818 70.8827 45.3776Z" fill="#6539C3"/>
<path d="M49.3853 47.0953C47.5222 47.0953 46.0118 48.5877 46.0118 50.4287C46.0118 52.2696 47.5222 53.762 49.3853 53.762C51.2484 53.762 52.7587 52.2696 52.7587 50.4287C52.7587 48.5877 51.2484 47.0953 49.3853 47.0953Z" fill="#6539C3"/>
<path fill-rule="evenodd" clip-rule="evenodd" d="M34.6938 40.6737C33 42.3474 33 45.0411 33 50.4287C33 55.8162 33 58.51 34.6938 60.1836C36.3876 61.8573 39.1138 61.8573 44.5661 61.8573H54.2044C59.6567 61.8573 62.3829 61.8573 64.0767 60.1836C65.7705 58.51 65.7705 55.8162 65.7705 50.4287C65.7705 45.0411 65.7705 42.3474 64.0767 40.6737C62.3829 39 59.6567 39 54.2044 39H44.5661C39.1138 39 36.3876 39 34.6938 40.6737ZM43.1203 50.4287C43.1203 47.0097 45.9252 44.2381 49.3853 44.2381C52.8453 44.2381 55.6502 47.0097 55.6502 50.4287C55.6502 53.8476 52.8453 56.6192 49.3853 56.6192C45.9252 56.6192 43.1203 53.8476 43.1203 50.4287ZM59.9875 55.6668C59.189 55.6668 58.5417 55.0272 58.5417 54.2382V46.6191C58.5417 45.8301 59.189 45.1905 59.9875 45.1905C60.7859 45.1905 61.4332 45.8301 61.4332 46.6191V54.2382C61.4332 55.0272 60.7859 55.6668 59.9875 55.6668ZM37.3373 54.2382C37.3373 55.0272 37.9846 55.6668 38.783 55.6668C39.5815 55.6668 40.2288 55.0272 40.2288 54.2382L40.2288 46.6191C40.2288 45.8301 39.5815 45.1905 38.783 45.1905C37.9846 45.1905 37.3373 45.8301 37.3373 46.6191L37.3373 54.2382Z" fill="#6539C3"/>
</svg>
