<svg width="105" height="106" viewBox="0 0 105 106" fill="none" xmlns="http://www.w3.org/2000/svg">
<rect width="105" height="106.01" rx="52.5" fill="#6539C3" fill-opacity="0.1"/>
<path fill-rule="evenodd" clip-rule="evenodd" d="M53.0945 34.6667H52.9054C49.8249 34.6667 47.385 34.6666 45.4755 34.9278C43.5103 35.1967 41.9196 35.7631 40.6652 37.0394C39.4108 38.3156 38.8542 39.934 38.5899 41.9335C38.3332 43.8763 38.3332 46.3588 38.3333 49.4929V56.5071C38.3332 59.6412 38.3332 62.1237 38.5899 64.0666C38.8542 66.066 39.4108 67.6844 40.6652 68.9607C41.9196 70.237 43.5103 70.8034 45.4755 71.0722C47.385 71.3334 49.8249 71.3334 52.9053 71.3334H53.0945C56.1749 71.3334 58.6149 71.3334 60.5244 71.0722C62.4896 70.8034 64.0802 70.237 65.3346 68.9607C66.589 67.6844 67.1457 66.066 67.4099 64.0666C67.6666 62.1237 67.6666 59.6413 67.6666 56.5072V49.493C67.6666 46.3588 67.6666 43.8763 67.4099 41.9335C67.1457 39.934 66.589 38.3156 65.3346 37.0394C64.0802 35.7631 62.4896 35.1967 60.5244 34.9278C58.6148 34.6666 56.1749 34.6667 53.0945 34.6667ZM46.7142 64.938C46.7142 64.2316 47.277 63.6589 47.9713 63.6589H58.0285C58.7228 63.6589 59.2856 64.2316 59.2856 64.938C59.2856 65.6444 58.7228 66.2171 58.0285 66.2171H47.9713C47.277 66.2171 46.7142 65.6444 46.7142 64.938Z" fill="#6539C3"/>
</svg>
