<svg width="105" height="106" viewBox="0 0 105 106" fill="none" xmlns="http://www.w3.org/2000/svg">
<rect width="105" height="106.01" rx="52.5" fill="#6539C3" fill-opacity="0.1"/>
<path d="M56.7287 40.5667C56.1012 40.5019 55.2894 40.5 54.0558 40.5H53C52.1716 40.5 51.5 39.8284 51.5 39C51.5 38.1716 52.1716 37.5 53 37.5L54.1295 37.5H54.1296C55.2695 37.5 56.2373 37.4999 57.0372 37.5826C57.8888 37.6707 58.6759 37.8619 59.4194 38.3214C60.163 38.781 60.686 39.3994 61.1456 40.1218C61.5508 40.7587 61.9571 41.5606 62.4271 42.5L64.7365 42.5C65.3041 42.5 65.8254 42.4999 66.2597 42.5389C66.7291 42.5811 67.2407 42.678 67.7359 42.9608C68.279 43.271 68.7291 43.721 69.0393 44.2642C69.3221 44.7594 69.4189 45.271 69.4611 45.7403C69.5001 46.1747 69.5001 46.6959 69.5 47.2636V47.3214L69.5002 47.4505C69.5014 47.9701 69.5027 48.5263 69.3341 49.0542C69.2211 49.4078 69.0526 49.7412 68.8349 50.0419C68.5099 50.4908 68.0613 50.8197 67.6423 51.1269L67.5383 51.2033L66.9832 51.6122L67.9573 53.5605C71.6474 54.0306 74.5 57.1822 74.5 61C74.5 65.1421 71.1422 68.5 67 68.5C63.3716 68.5 60.345 65.9234 59.6501 62.5H49.35C48.6551 65.9234 45.6285 68.5 42 68.5C38.3653 68.5 35.3344 65.9144 34.6465 62.4821C32.9674 62.3121 31.6438 60.9645 31.5108 59.2746C31.4998 59.1351 31.4999 58.984 31.5 58.8385L31.5 58.8L31.5 58.7238C31.5 58.0537 31.5 57.6276 31.5293 57.2546C31.896 52.5961 35.5961 48.8959 40.2547 48.5293C40.6276 48.4999 41.0537 48.5 41.7238 48.5H41.7238L41.8 48.5L43.104 48.5C44.901 48.4999 46.3994 48.4999 47.589 48.6598C48.8446 48.8286 49.9782 49.2 50.8891 50.1109C51.8001 51.0219 52.1714 52.1555 52.3402 53.411C52.5001 54.6006 52.5001 56.099 52.5 57.896V57.896L52.5 59.5H59.6501C60.1945 56.8179 62.1703 54.6555 64.7454 53.8448L59.8695 44.0931C59.3178 42.9897 58.9531 42.2644 58.6145 41.7322C58.2945 41.2294 58.0653 41.0112 57.8422 40.8734C57.6192 40.7355 57.3215 40.628 56.7287 40.5667Z" fill="#6539C3"/>
</svg>
